<svg width="99" height="100" viewBox="0 0 99 100" fill="none" xmlns="http://www.w3.org/2000/svg">
<g opacity="0.2" clip-path="url(#clip0_8836_457)">
<path fill-rule="evenodd" clip-rule="evenodd" d="M89.7821 15.9101C89.8465 15.7391 89.9487 15.7391 90.0093 15.9101L91.9857 21.2702C92.2536 21.8801 92.7401 22.3668 93.3487 22.634L98.691 24.6207C98.8614 24.6815 98.8614 24.7841 98.691 24.8487L93.3487 26.8317C92.7394 27.0997 92.2529 27.5879 91.9857 28.1992L90.0093 33.5442C89.9487 33.7113 89.8465 33.7113 89.7821 33.5442L87.8057 28.184C87.5424 27.5701 87.0546 27.0807 86.4427 26.8165L81.1004 24.8335C80.93 24.7689 80.93 24.6663 81.1004 24.6056L86.4427 22.6188C87.0535 22.3548 87.541 21.8671 87.8057 21.255L89.7821 15.9101ZM77.6322 11.2717C77.4726 11.639 77.1804 11.9321 76.8144 12.0923L73.6075 13.2813C73.5053 13.3193 73.5053 13.3839 73.6075 13.418L76.8144 14.6109C77.1804 14.7711 77.4726 15.0642 77.6322 15.4314L78.8173 18.6452C78.8552 18.7478 78.9157 18.7478 78.9536 18.6452L80.1387 15.4314C80.2971 15.0633 80.5896 14.7698 80.9565 14.6109L84.1672 13.4104C84.2694 13.3763 84.2694 13.3117 84.1672 13.2737L80.9603 12.0847C80.5934 11.9257 80.3009 11.6322 80.1425 11.2641L78.9574 8.05032C78.9195 7.94775 78.859 7.94775 78.8211 8.05032L77.6322 11.2717ZM70.5369 50.4413C71.4645 49.6815 72.4754 47.8885 72.9601 46.5589C68.4583 48.7204 66.4478 45.7118 63.1159 46.4183C57.6828 47.558 55.6988 50.0576 48.2059 48.3747C50.5193 49.9664 53.7375 51.8886 56.3765 52.7206C53.0598 56.0863 50.9395 60.5499 49.7431 66.4875C52.8629 66.9092 56.4825 65.9443 60.5186 65.0439C58.9701 62.5481 58.2128 59.2166 57.944 55.3646C59.4657 58.8681 61.8787 61.9087 64.9409 64.1816C69.7607 63.4218 75.069 63.3839 80.7483 66.081C77.9843 55.1708 70.5369 50.4413 70.5369 50.4413ZM10.1357 35.0067C11.5038 37.6963 12.9501 40.344 14.4747 42.95C19.5936 31.7017 26.5072 20.537 37.809 11.568C27.5181 22.6834 21.286 35.1473 17.5188 47.9379C18.3442 49.2409 19.1961 50.5287 20.0631 51.8051C23.5313 41.3241 28.6086 30.771 37.7636 21.6957C29.6422 32.6552 25.2918 44.4278 23.1829 56.2649C24.031 57.4222 24.8956 58.5708 25.7765 59.7104C27.6696 50.2969 30.9257 40.6859 37.7219 31.8385C31.9442 42.3384 29.4567 53.0929 28.9152 63.646C32.0805 67.4828 35.4414 71.1892 38.9979 74.7651C41.9132 77.6902 44.9233 80.4836 48.028 83.1453C48.0923 83.1681 48.1567 83.1985 48.2248 83.2175C43.5035 75.4299 38.7821 65.9898 36.4876 57.6097C39.2288 50.7718 43.015 43.3907 47.513 40.9974C52.011 38.6042 57.4934 44.1315 63.4794 43.2463C66.6409 42.7791 70.3438 37.4 74.3761 42.9728C81.0739 36.3249 64.5055 24.5828 58.705 10.6601C56.1759 4.582 51.0758 2.76996 43.5035 3.11946C26.1627 3.91341 11.3662 32.3171 10.1319 35.0067H10.1357ZM59.1139 96.6957C37.8501 82.0604 20.3716 62.5481 8.12902 39.778C7.04507 42.6039 6.12226 45.4893 5.36509 48.4203C11.1769 58.1073 16.2277 63.8283 24.6974 72.7061C16.3413 66.9737 9.85552 60.1359 4.27845 53.222C4.02856 54.5136 3.65751 56.5802 3.35083 59.209C3.25731 60.0158 3.35499 60.8334 3.63593 61.5951C3.91686 62.3569 4.37312 63.0414 4.96754 63.5928C20.6309 78.1439 39.0405 89.3996 59.1102 96.6957H59.1139ZM80.8126 69.7545C73.0093 64.0031 59.7311 69.9558 48.221 70.8675C57.3836 73.6445 67.4246 69.272 76.2654 72.0072C75.0084 77.9447 72.2104 84.1368 68.8217 90.4238C74.4783 84.9269 79.1619 77.8763 80.8088 69.7545H80.8126ZM66.7507 55.9914C65.1237 55.5699 63.5517 54.9579 62.0672 54.1679L60.6208 56.8271C61.6469 57.3437 66.1449 58.0389 68.038 57.906C68.3091 57.888 68.5629 57.7655 68.746 57.5641C69.9728 56.2231 70.9382 54.525 71.8393 52.9637C70.4123 54.1228 68.8664 55.1263 67.2278 55.9572C67.0781 56.026 66.9086 56.0382 66.7507 55.9914V55.9914Z" fill="#E4E0DB"/>
<path fill-rule="evenodd" clip-rule="evenodd" d="M89.7821 15.9101C89.8465 15.7391 89.9487 15.7391 90.0093 15.9101L91.9857 21.2702C92.2536 21.8801 92.7401 22.3668 93.3487 22.634L98.691 24.6207C98.8614 24.6815 98.8614 24.7841 98.691 24.8487L93.3487 26.8317C92.7394 27.0997 92.2529 27.5879 91.9857 28.1992L90.0093 33.5442C89.9487 33.7113 89.8465 33.7113 89.7821 33.5442L87.8057 28.184C87.5424 27.5701 87.0546 27.0807 86.4427 26.8165L81.1004 24.8335C80.93 24.7689 80.93 24.6663 81.1004 24.6056L86.4427 22.6188C87.0535 22.3548 87.541 21.8671 87.8057 21.255L89.7821 15.9101ZM77.6322 11.2717C77.4726 11.639 77.1804 11.9321 76.8144 12.0923L73.6075 13.2813C73.5053 13.3193 73.5053 13.3839 73.6075 13.418L76.8144 14.6109C77.1804 14.7711 77.4726 15.0642 77.6322 15.4314L78.8173 18.6452C78.8552 18.7478 78.9157 18.7478 78.9536 18.6452L80.1387 15.4314C80.2971 15.0633 80.5896 14.7698 80.9565 14.6109L84.1672 13.4104C84.2694 13.3763 84.2694 13.3117 84.1672 13.2737L80.9603 12.0847C80.5934 11.9257 80.3009 11.6322 80.1425 11.2641L78.9574 8.05032C78.9195 7.94775 78.859 7.94775 78.8211 8.05032L77.6322 11.2717ZM70.5369 50.4413C71.4645 49.6815 72.4754 47.8885 72.9601 46.5589C68.4583 48.7204 66.4478 45.7118 63.1159 46.4183C57.6828 47.558 55.6988 50.0576 48.2059 48.3747C50.5193 49.9664 53.7375 51.8886 56.3765 52.7206C53.0598 56.0863 50.9395 60.5499 49.7431 66.4875C52.8629 66.9092 56.4825 65.9443 60.5186 65.0439C58.9701 62.5481 58.2128 59.2166 57.944 55.3646C59.4657 58.8681 61.8787 61.9087 64.9409 64.1816C69.7607 63.4218 75.069 63.3839 80.7483 66.081C77.9843 55.1708 70.5369 50.4413 70.5369 50.4413ZM10.1357 35.0067C11.5038 37.6963 12.9501 40.344 14.4747 42.95C19.5936 31.7017 26.5072 20.537 37.809 11.568C27.5181 22.6834 21.286 35.1473 17.5188 47.9379C18.3442 49.2409 19.1961 50.5287 20.0631 51.8051C23.5313 41.3241 28.6086 30.771 37.7636 21.6957C29.6422 32.6552 25.2918 44.4278 23.1829 56.2649C24.031 57.4222 24.8956 58.5708 25.7765 59.7104C27.6696 50.2969 30.9257 40.6859 37.7219 31.8385C31.9442 42.3384 29.4567 53.0929 28.9152 63.646C32.0805 67.4828 35.4414 71.1892 38.9979 74.7651C41.9132 77.6902 44.9233 80.4836 48.028 83.1453C48.0923 83.1681 48.1567 83.1985 48.2248 83.2175C43.5035 75.4299 38.7821 65.9898 36.4876 57.6097C39.2288 50.7718 43.015 43.3907 47.513 40.9974C52.011 38.6042 57.4934 44.1315 63.4794 43.2463C66.6409 42.7791 70.3438 37.4 74.3761 42.9728C81.0739 36.3249 64.5055 24.5828 58.705 10.6601C56.1759 4.582 51.0758 2.76996 43.5035 3.11946C26.1627 3.91341 11.3662 32.3171 10.1319 35.0067H10.1357ZM59.1139 96.6957C37.8501 82.0604 20.3716 62.5481 8.12902 39.778C7.04507 42.6039 6.12226 45.4893 5.36509 48.4203C11.1769 58.1073 16.2277 63.8283 24.6974 72.7061C16.3413 66.9737 9.85552 60.1359 4.27845 53.222C4.02856 54.5136 3.65751 56.5802 3.35083 59.209C3.25731 60.0158 3.35499 60.8334 3.63593 61.5951C3.91686 62.3569 4.37312 63.0414 4.96754 63.5928C20.6309 78.1439 39.0405 89.3996 59.1102 96.6957H59.1139ZM80.8126 69.7545C73.0093 64.0031 59.7311 69.9558 48.221 70.8675C57.3836 73.6445 67.4246 69.272 76.2654 72.0072C75.0084 77.9447 72.2104 84.1368 68.8217 90.4238C74.4783 84.9269 79.1619 77.8763 80.8088 69.7545H80.8126ZM66.7507 55.9914C65.1237 55.5699 63.5517 54.9579 62.0672 54.1679L60.6208 56.8271C61.6469 57.3437 66.1449 58.0389 68.038 57.906C68.3091 57.888 68.5629 57.7655 68.746 57.5641C69.9728 56.2231 70.9382 54.525 71.8393 52.9637C70.4123 54.1228 68.8664 55.1263 67.2278 55.9572C67.0781 56.026 66.9086 56.0382 66.7507 55.9914V55.9914Z" fill="#E4E0DB"/>
</g>
<defs>
<clipPath id="clip0_8836_457">
<rect width="98.8235" height="100" fill="white"/>
</clipPath>
</defs>
</svg>
