<svg width="92" height="23" viewBox="0 0 92 23" fill="none" xmlns="http://www.w3.org/2000/svg">
<path d="M7.64904 0.689474C12.9661 0.689695 15.1383 4.75387 15.1383 9.72072V10.3223H3.70373C3.76602 12.6095 5.56127 14.4204 7.734 14.3867C9.13239 14.5134 10.4535 13.6911 11.0221 12.3399H14.8531C13.8129 15.5079 10.8809 17.5451 7.70568 17.3067C5.60429 17.3834 3.56998 16.521 2.10509 14.9326C0.640173 13.3442 -0.119202 11.1774 0.0152495 8.96779C-0.0925663 6.78155 0.669574 4.64688 2.11779 3.07619C3.56607 1.50547 5.57047 0.64048 7.64904 0.689474ZM7.64513 3.6094C5.57349 3.60383 3.8511 5.28626 3.7008 7.46193V7.52248H11.4479C11.4602 6.46498 11.0606 5.44832 10.3424 4.709C9.62406 3.96966 8.649 3.57228 7.64513 3.6094Z" fill="#E4E0DB"/>
<path d="M14.3125 16.8539L19.8586 8.7562L14.7413 1.23047H18.9437L21.8025 5.86632L24.6613 1.23047H28.8066L23.6894 8.7562L29.3498 16.8539H25.0616L21.774 11.616L18.6007 16.8539H14.3125Z" fill="#E4E0DB"/>
<path d="M36.2063 0.688532C38.3054 0.610539 40.3396 1.46086 41.8166 3.03326C43.2938 4.60582 44.0788 6.75738 43.9817 8.96685C44.0788 11.1763 43.2938 13.3279 41.8166 14.9004C40.3396 16.4729 38.3054 17.3232 36.2063 17.2452C34.1071 17.3232 32.0721 16.473 30.595 14.9004C29.1179 13.3279 28.3328 11.1763 28.4299 8.96685C28.3328 6.75743 29.1179 4.60581 30.595 3.03326C32.0721 1.46069 34.1071 0.610474 36.2063 0.688532ZM36.2063 3.69927C33.1475 3.69934 31.9182 6.40814 31.9182 8.96685C31.9182 11.5256 33.2046 14.2344 36.2063 14.2344C39.208 14.2344 40.4944 11.5256 40.4944 8.96685C40.4944 6.40811 39.2652 3.69927 36.2063 3.69927Z" fill="#E4E0DB"/>
<path d="M62.167 3.66797L59.9375 13.3018C59.8128 13.7337 59.727 14.1771 59.6807 14.626C59.6807 14.9268 59.8231 15.077 60.0801 15.0771C60.6232 15.0771 61.5102 14.475 62.7109 12.8193L63.3105 13.4521C61.5954 16.1912 60.3092 17.0947 58.8799 17.0947C57.7935 17.0947 57.2793 16.2811 57.2793 15.0469C57.4618 13.3213 57.8355 11.624 58.3936 9.99023H58.1934C56.5067 13.8433 54.0766 17.0947 51.7324 17.0947C49.7316 17.0945 48.5596 15.4084 48.5596 12.5791C48.5596 6.07687 53.1054 0.538086 57.3936 0.538086C58.5452 0.485749 59.6649 0.943885 60.4805 1.80176L62.167 0.296875H63.168L62.167 3.66797ZM57.4795 1.80176C53.8204 1.80195 51.1908 7.46137 51.1621 12.3379C51.1621 13.9933 51.7048 15.0768 52.7051 15.0771C54.8206 15.0771 57.9372 10.5924 59.7383 3.15723C59.2947 2.28671 58.4168 1.75949 57.4795 1.80176Z" fill="#E4E0DB"/>
<path d="M69.4795 4.81348L68.0508 8.96777L68.3076 8.9375C70.7947 3.75993 73.5966 0.539062 76.1123 0.539062C77.999 0.539177 79.2568 2.31512 79.2568 4.81348C79.2568 11.3156 74.0539 17.0956 69.6514 17.0957C68.6252 17.1171 67.6499 16.626 67.0215 15.7715L66.1924 19.5342C66.1191 19.8392 66.0808 20.1522 66.0781 20.4668C66.0781 21.3698 66.9067 21.5204 68.0215 21.6709L67.8936 22.2285H60.7461L60.875 21.6709C62.2185 21.4903 63.2471 21.3397 63.5615 19.9551L67.4502 3.03809L65.249 2.19434L65.4199 1.5625L69.708 0.539062H70.4229L69.4795 4.81348ZM74.9453 2.61621C73.2014 2.61621 69.1987 7.25239 67.4834 13.3633C67.4359 13.9874 67.637 14.6041 68.0381 15.0664C68.4391 15.5286 69.0041 15.7953 69.5986 15.8018C73.2293 15.8018 76.5173 9.96145 76.5459 5.05469C76.5459 3.39925 75.9456 2.61642 74.9453 2.61621Z" fill="#E4E0DB"/>
<path d="M88.6426 0.537162C89.524 0.418172 90.4102 0.720484 91.0576 1.36138C91.7051 2.00233 92.0458 2.91498 91.9873 3.84869C91.9872 7.49103 86.8701 9.05652 82.6963 10.2305V11.0127C82.6963 13.6317 83.8688 15.3174 85.7842 15.3174C87.6085 15.1327 89.2618 14.1083 90.3008 12.5186L91.0156 13.1202C88.9001 16.1304 87.1278 17.0938 84.8408 17.0938C81.496 17.0938 80.1524 14.0836 80.1523 11.0733C80.1523 5.89574 84.0115 0.537463 88.6426 0.537162ZM87.873 2.04204C85.586 2.04204 83.3271 5.17308 82.8125 9.3272C87.3005 7.82215 89.5876 6.46775 89.5879 4.0899C89.6494 3.57174 89.497 3.04981 89.1689 2.65826C88.8409 2.26687 88.3688 2.04248 87.873 2.04204Z" fill="#E4E0DB"/>
</svg>
