<svg width="96" height="94" viewBox="0 0 96 94" fill="none" xmlns="http://www.w3.org/2000/svg">
<path fill-rule="evenodd" clip-rule="evenodd" d="M86.4657 12.8319C86.5301 12.661 86.6323 12.661 86.6929 12.8319L88.6693 18.1921C88.9372 18.802 89.4237 19.2887 90.0323 19.5558L95.3746 21.5426C95.545 21.6034 95.545 21.706 95.3746 21.7705L90.0323 23.7535C89.423 24.0216 88.9364 24.5097 88.6693 25.1211L86.6929 30.466C86.6323 30.6332 86.5301 30.6332 86.4657 30.466L84.4893 25.1059C84.226 24.4919 83.7382 24.0025 83.1263 23.7383L77.784 21.7554C77.6136 21.6908 77.6136 21.5882 77.784 21.5274L83.1263 19.5406C83.7371 19.2767 84.2245 18.789 84.4893 18.1769L86.4657 12.8319ZM74.3158 8.19358C74.1561 8.56082 73.864 8.85393 73.498 9.01413L70.2911 10.2032C70.1888 10.2411 70.1888 10.3057 70.2911 10.3399L73.498 11.5327C73.864 11.6929 74.1561 11.986 74.3158 12.3533L75.5009 15.5671C75.5387 15.6696 75.5993 15.6696 75.6372 15.5671L76.8223 12.3533C76.9807 11.9852 77.2732 11.6917 77.6401 11.5327L80.8508 10.3323C80.953 10.2981 80.953 10.2335 80.8508 10.1956L77.6439 9.00653C77.277 8.84761 76.9844 8.5541 76.826 8.18598L75.641 4.97219C75.6031 4.86962 75.5425 4.86962 75.5047 4.97219L74.3158 8.19358ZM67.2205 47.3632C68.1481 46.6034 69.159 44.8103 69.6436 43.4808C65.1418 45.6423 63.1314 42.6336 59.7995 43.3402C54.3663 44.4799 52.3824 46.9795 44.8895 45.2966C47.2029 46.8883 50.4211 48.8105 53.0601 49.6424C49.7434 53.0082 47.6231 57.4718 46.4267 63.4093C49.5465 63.831 53.1661 62.8661 57.2022 61.9658C55.6536 59.47 54.8964 56.1384 54.6276 52.2864C56.1493 55.7899 58.5622 58.8306 61.6245 61.1035C66.4443 60.3437 71.7525 60.3057 77.4318 63.0029C74.6679 52.0927 67.2205 47.3632 67.2205 47.3632ZM6.81929 31.9286C8.18737 34.6181 9.63369 37.2659 11.1583 39.8719C16.2772 28.6236 23.1908 17.4589 34.4926 8.48989C24.2017 19.6052 17.9696 32.0691 14.2024 44.8597C15.0278 46.1627 15.8797 47.4505 16.7467 48.7269C20.2149 38.246 25.2921 27.6929 34.4472 18.6175C26.3258 29.5771 21.9754 41.3496 19.8665 53.1867C20.7146 54.3441 21.5791 55.4926 22.4601 56.6323C24.3532 47.2188 27.6093 37.6078 34.4055 28.7604C28.6278 39.2603 26.1402 50.0147 25.5988 60.5678C28.7641 64.4046 32.125 68.111 35.6815 71.687C38.5968 74.612 41.6069 77.4054 44.7115 80.0671C44.7759 80.0899 44.8403 80.1203 44.9084 80.1393C40.187 72.3518 35.4656 62.9117 33.1712 54.5315C35.9124 47.6936 39.6986 40.3125 44.1966 37.9193C48.6946 35.526 54.177 41.0533 60.163 40.1682C63.3245 39.7009 67.0274 34.3218 71.0597 39.8947C77.7574 33.2468 61.1891 21.5046 55.3886 7.58197C52.8594 1.50387 47.7594 -0.308161 40.187 0.0413301C22.8463 0.835282 8.0498 29.239 6.8155 31.9286H6.81929ZM55.7975 93.6175C34.5337 78.9823 17.0552 59.47 4.81261 36.6999C3.72866 39.5257 2.80586 42.4111 2.04868 45.3422C7.86049 55.0292 12.9113 60.7502 21.381 69.628C13.0249 63.8956 6.53911 57.0577 0.962047 50.1439C0.712158 51.4355 0.341107 53.502 0.0344248 56.1308C-0.0590974 56.9376 0.038586 57.7552 0.319522 58.517C0.600458 59.2788 1.05671 59.9632 1.65114 60.5146C17.3144 75.0657 35.7241 86.3214 55.7937 93.6175H55.7975ZM77.4962 66.6763C69.6928 60.9249 56.4147 66.8777 44.9046 67.7894C54.0672 70.5663 64.1082 66.1939 72.949 68.929C71.692 74.8666 68.894 81.0586 65.5053 87.3457C71.1619 81.8488 75.8454 74.7982 77.4924 66.6763H77.4962ZM63.4343 52.9132C61.8072 52.4918 60.2353 51.8798 58.7507 51.0898L57.3044 53.749C58.3305 54.2656 62.8285 54.9608 64.7216 54.8278C64.9927 54.8098 65.2464 54.6873 65.4296 54.4859C66.6563 53.1449 67.6218 51.4469 68.5229 49.8856C67.0959 51.0446 65.55 52.0481 63.9113 52.879C63.7616 52.9479 63.5922 52.96 63.4343 52.9132Z" fill="#E4E0DB"/>
</svg>
