<svg width="92" height="23" viewBox="0 0 92 23" fill="none" xmlns="http://www.w3.org/2000/svg">
<path d="M7.64904 0.688395C12.9661 0.688616 15.1383 4.7528 15.1383 9.71964V10.3212H3.70373C3.76602 12.6084 5.56127 14.4193 7.734 14.3857C9.13239 14.5123 10.4535 13.69 11.0221 12.3388H14.8531C13.8129 15.5068 10.8809 17.5441 7.70568 17.3056C5.60429 17.3823 3.56998 16.5199 2.10509 14.9316C0.640173 13.3431 -0.119202 11.1764 0.0152495 8.96671C-0.0925663 6.78047 0.669574 4.6458 2.11779 3.07511C3.56607 1.50439 5.57047 0.639401 7.64904 0.688395ZM7.64513 3.60832C5.57349 3.60276 3.8511 5.28518 3.7008 7.46086V7.5214H11.4479C11.4602 6.4639 11.0606 5.44724 10.3424 4.70793C9.62406 3.96859 8.649 3.5712 7.64513 3.60832Z" fill="#E4E0DB"/>
<path d="M14.3127 16.8531L19.8588 8.75543L14.7416 1.22969H18.944L21.8028 5.86554L24.6616 1.22969H28.8068L23.6896 8.75543L29.35 16.8531H25.0618L21.7742 11.6152L18.6009 16.8531H14.3127Z" fill="#E4E0DB"/>
<path d="M36.2068 0.687988C38.3059 0.609994 40.3401 1.46032 41.8171 3.03271C43.2943 4.60528 44.0793 6.75683 43.9822 8.96631C44.0793 11.1758 43.2943 13.3273 41.8171 14.8999C40.3401 16.4723 38.3059 17.3226 36.2068 17.2446C34.1076 17.3227 32.0726 16.4725 30.5955 14.8999C29.1184 13.3273 28.3333 11.1757 28.4304 8.96631C28.3333 6.75689 29.1184 4.60526 30.5955 3.03271C32.0726 1.46014 34.1076 0.60993 36.2068 0.687988ZM36.2068 3.69873C33.148 3.69879 31.9187 6.4076 31.9187 8.96631C31.9187 11.525 33.2051 14.2338 36.2068 14.2339C39.2085 14.2339 40.4949 11.5251 40.4949 8.96631C40.4949 6.40757 39.2657 3.69873 36.2068 3.69873Z" fill="#E4E0DB"/>
<path d="M62.1667 3.66797L59.9372 13.3018C59.8124 13.7337 59.7267 14.1771 59.6804 14.626C59.6804 14.9268 59.8228 15.077 60.0798 15.0771C60.6229 15.0771 61.5099 14.475 62.7106 12.8193L63.3102 13.4521C61.5951 16.1912 60.3089 17.0947 58.8796 17.0947C57.7932 17.0947 57.279 16.2811 57.279 15.0469C57.4615 13.3213 57.8351 11.624 58.3932 9.99023H58.1931C56.5064 13.8433 54.0763 17.0947 51.7321 17.0947C49.7313 17.0945 48.5593 15.4084 48.5593 12.5791C48.5593 6.07687 53.1051 0.538086 57.3932 0.538086C58.5449 0.485749 59.6646 0.943885 60.4802 1.80176L62.1667 0.296875H63.1677L62.1667 3.66797ZM57.4792 1.80176C53.8201 1.80195 51.1905 7.46137 51.1618 12.3379C51.1618 13.9933 51.7045 15.0768 52.7048 15.0771C54.8202 15.0771 57.9369 10.5924 59.738 3.15723C59.2944 2.28671 58.4165 1.75949 57.4792 1.80176Z" fill="#E4E0DB"/>
<path d="M69.4799 4.81206L68.0511 8.96636L68.308 8.93608C70.7951 3.75851 73.597 0.537644 76.1127 0.537644C77.9993 0.537759 79.2571 2.3137 79.2572 4.81206C79.2572 11.3142 74.0543 17.0942 69.6517 17.0943C68.6256 17.1157 67.6502 16.6246 67.0219 15.7701L66.1927 19.5328C66.1194 19.8377 66.0811 20.1508 66.0785 20.4654C66.0785 21.3684 66.9071 21.519 68.0219 21.6695L67.8939 22.2271H60.7465L60.8754 21.6695C62.2189 21.4889 63.2475 21.3383 63.5619 19.9537L67.4506 3.03667L65.2494 2.19292L65.4203 1.56108L69.7084 0.537644H70.4232L69.4799 4.81206ZM74.9457 2.61479C73.2018 2.61479 69.199 7.25097 67.4838 13.3619C67.4362 13.986 67.6374 14.6027 68.0385 15.065C68.4395 15.5272 69.0045 15.7939 69.599 15.8003C73.2296 15.8003 76.5176 9.96003 76.5463 5.05327C76.5463 3.39783 75.946 2.615 74.9457 2.61479Z" fill="#E4E0DB"/>
<path d="M88.643 0.537354C89.5243 0.418364 90.4106 0.720676 91.058 1.36157C91.7054 2.00253 92.0462 2.91517 91.9877 3.84888C91.9875 7.49122 86.8704 9.05672 82.6967 10.2307V11.0129C82.6967 13.6319 83.8692 15.3176 85.7846 15.3176C87.6088 15.1329 89.2622 14.1085 90.3012 12.5188L91.016 13.1204C88.9005 16.1306 87.1282 17.094 84.8412 17.094C81.4964 17.094 80.1527 14.0838 80.1527 11.0735C80.1527 5.89593 84.0119 0.537655 88.643 0.537354ZM87.8734 2.04224C85.5864 2.04224 83.3275 5.17328 82.8129 9.32739C87.3009 7.82234 89.588 6.46795 89.5883 4.09009C89.6497 3.57193 89.4974 3.05 89.1693 2.65845C88.8413 2.26706 88.3691 2.04267 87.8734 2.04224Z" fill="#E4E0DB"/>
<path d="M7.64904 0.688395C12.9661 0.688616 15.1383 4.7528 15.1383 9.71964V10.3212H3.70373C3.76602 12.6084 5.56127 14.4193 7.734 14.3857C9.13239 14.5123 10.4535 13.69 11.0221 12.3388H14.8531C13.8129 15.5068 10.8809 17.5441 7.70568 17.3056C5.60429 17.3823 3.56998 16.5199 2.10509 14.9316C0.640173 13.3431 -0.119202 11.1764 0.0152495 8.96671C-0.0925663 6.78047 0.669574 4.6458 2.11779 3.07511C3.56607 1.50439 5.57047 0.639401 7.64904 0.688395ZM7.64513 3.60832C5.57349 3.60276 3.8511 5.28518 3.7008 7.46086V7.5214H11.4479C11.4602 6.4639 11.0606 5.44724 10.3424 4.70793C9.62406 3.96859 8.649 3.5712 7.64513 3.60832Z" fill="#E4E0DB"/>
<path d="M14.3127 16.8531L19.8588 8.75543L14.7416 1.22969H18.944L21.8028 5.86554L24.6616 1.22969H28.8068L23.6896 8.75543L29.35 16.8531H25.0618L21.7742 11.6152L18.6009 16.8531H14.3127Z" fill="#E4E0DB"/>
<path d="M36.2068 0.687988C38.3059 0.609994 40.3401 1.46032 41.8171 3.03271C43.2943 4.60528 44.0793 6.75683 43.9822 8.96631C44.0793 11.1758 43.2943 13.3273 41.8171 14.8999C40.3401 16.4723 38.3059 17.3226 36.2068 17.2446C34.1076 17.3227 32.0726 16.4725 30.5955 14.8999C29.1184 13.3273 28.3333 11.1757 28.4304 8.96631C28.3333 6.75689 29.1184 4.60526 30.5955 3.03271C32.0726 1.46014 34.1076 0.60993 36.2068 0.687988ZM36.2068 3.69873C33.148 3.69879 31.9187 6.4076 31.9187 8.96631C31.9187 11.525 33.2051 14.2338 36.2068 14.2339C39.2085 14.2339 40.4949 11.5251 40.4949 8.96631C40.4949 6.40757 39.2657 3.69873 36.2068 3.69873Z" fill="#E4E0DB"/>
<path d="M62.1667 3.66797L59.9372 13.3018C59.8124 13.7337 59.7267 14.1771 59.6804 14.626C59.6804 14.9268 59.8228 15.077 60.0798 15.0771C60.6229 15.0771 61.5099 14.475 62.7106 12.8193L63.3102 13.4521C61.5951 16.1912 60.3089 17.0947 58.8796 17.0947C57.7932 17.0947 57.279 16.2811 57.279 15.0469C57.4615 13.3213 57.8351 11.624 58.3932 9.99023H58.1931C56.5064 13.8433 54.0763 17.0947 51.7321 17.0947C49.7313 17.0945 48.5593 15.4084 48.5593 12.5791C48.5593 6.07687 53.1051 0.538086 57.3932 0.538086C58.5449 0.485749 59.6646 0.943885 60.4802 1.80176L62.1667 0.296875H63.1677L62.1667 3.66797ZM57.4792 1.80176C53.8201 1.80195 51.1905 7.46137 51.1618 12.3379C51.1618 13.9933 51.7045 15.0768 52.7048 15.0771C54.8202 15.0771 57.9369 10.5924 59.738 3.15723C59.2944 2.28671 58.4165 1.75949 57.4792 1.80176Z" fill="#E4E0DB"/>
<path d="M69.4799 4.81206L68.0511 8.96636L68.308 8.93608C70.7951 3.75851 73.597 0.537644 76.1127 0.537644C77.9993 0.537759 79.2571 2.3137 79.2572 4.81206C79.2572 11.3142 74.0543 17.0942 69.6517 17.0943C68.6256 17.1157 67.6502 16.6246 67.0219 15.7701L66.1927 19.5328C66.1194 19.8377 66.0811 20.1508 66.0785 20.4654C66.0785 21.3684 66.9071 21.519 68.0219 21.6695L67.8939 22.2271H60.7465L60.8754 21.6695C62.2189 21.4889 63.2475 21.3383 63.5619 19.9537L67.4506 3.03667L65.2494 2.19292L65.4203 1.56108L69.7084 0.537644H70.4232L69.4799 4.81206ZM74.9457 2.61479C73.2018 2.61479 69.199 7.25097 67.4838 13.3619C67.4362 13.986 67.6374 14.6027 68.0385 15.065C68.4395 15.5272 69.0045 15.7939 69.599 15.8003C73.2296 15.8003 76.5176 9.96003 76.5463 5.05327C76.5463 3.39783 75.946 2.615 74.9457 2.61479Z" fill="#E4E0DB"/>
<path d="M88.643 0.537354C89.5243 0.418364 90.4106 0.720676 91.058 1.36157C91.7054 2.00253 92.0462 2.91517 91.9877 3.84888C91.9875 7.49122 86.8704 9.05672 82.6967 10.2307V11.0129C82.6967 13.6319 83.8692 15.3176 85.7846 15.3176C87.6088 15.1329 89.2622 14.1085 90.3012 12.5188L91.016 13.1204C88.9005 16.1306 87.1282 17.094 84.8412 17.094C81.4964 17.094 80.1527 14.0838 80.1527 11.0735C80.1527 5.89593 84.0119 0.537655 88.643 0.537354ZM87.8734 2.04224C85.5864 2.04224 83.3275 5.17328 82.8129 9.32739C87.3009 7.82234 89.588 6.46795 89.5883 4.09009C89.6497 3.57193 89.4974 3.05 89.1693 2.65845C88.8413 2.26706 88.3691 2.04267 87.8734 2.04224Z" fill="#E4E0DB"/>
</svg>
